<svg width="112" height="41" viewBox="0 0 112 41" fill="none" xmlns="http://www.w3.org/2000/svg">
<path d="M59.0127 20.0004C59.0137 25.0826 57.0987 29.9746 53.6568 33.6824C50.2148 37.3903 45.5042 39.6359 40.4819 39.9629C35.4595 40.29 30.5023 38.674 26.6173 35.4433C22.7323 32.2125 20.2109 27.6094 19.5655 22.5692H12.6609C12.3719 22.5689 12.0948 22.4528 11.8905 22.2462L8.98332 19.3105C8.83105 19.1565 8.72737 18.9604 8.68539 18.747C8.6434 18.5336 8.66499 18.3123 8.74742 18.1113C8.82986 17.9103 8.96944 17.7384 9.14855 17.6174C9.32766 17.4964 9.53825 17.4317 9.75373 17.4316H43.2447C43.8293 17.4246 44.399 17.6179 44.8609 17.9797C45.3228 18.3415 45.6498 18.8507 45.7885 19.4242C45.8744 19.8009 45.8749 20.1924 45.7901 20.5693C45.7054 20.9463 45.5374 21.2991 45.2988 21.6014C45.0603 21.9037 44.7572 22.1477 44.4122 22.3153C44.0673 22.4828 43.6893 22.5696 43.3065 22.5692H25.0747C25.5585 25.2823 26.7984 27.7999 28.649 29.8266C30.4996 31.8533 32.8842 33.3051 35.523 34.0116C38.1618 34.7182 40.9454 34.6502 43.5473 33.8156C46.1491 32.981 48.4614 31.4145 50.2128 29.2998C51.9642 27.1851 53.0821 24.6099 53.4354 21.8763C53.7887 19.1427 53.3628 16.364 52.2075 13.8662C51.0522 11.3684 49.2156 9.25511 46.913 7.77415C44.6104 6.29319 41.9373 5.50601 39.2073 5.50495C36.9478 5.49526 34.7188 6.03126 32.7061 7.06825C32.0613 7.39916 31.3128 7.45787 30.6251 7.23145C29.9375 7.00503 29.3671 6.51203 29.0394 5.86091C28.7117 5.20979 28.6536 4.45389 28.8778 3.75949C29.102 3.06509 29.5902 2.48907 30.235 2.15816C33.0135 0.72927 36.0893 -0.0104257 39.2073 0.000360428C44.4583 0.00618847 49.4925 2.1152 53.2054 5.86466C56.9184 9.61413 59.0069 14.6978 59.0127 20.0004Z" fill="url(#paint0_linear_146_15)"/>
<path d="M19.2021 4.56917L6.80289 17.0939L3.20523 13.4609L15.6045 0.936141C16.0815 0.454371 16.7286 0.183716 17.4033 0.183716C18.078 0.183716 18.725 0.454371 19.2021 0.936141C19.6792 1.41791 19.9472 2.07133 19.9472 2.75265C19.9472 3.43398 19.6792 4.0874 19.2021 4.56917Z" fill="url(#paint1_linear_146_15)"/>
<path d="M19.2021 39.0646C18.9659 39.3031 18.6855 39.4924 18.3768 39.6215C18.0682 39.7506 17.7374 39.8171 17.4033 39.8171C17.0692 39.8171 16.7384 39.7506 16.4298 39.6215C16.1211 39.4924 15.8407 39.3031 15.6045 39.0646L3.29246 26.6316L2.92906 26.2646C1.9199 25.2012 1.14032 23.9378 0.639634 22.5545C0.214208 21.3763 -0.00229692 20.1315 4.93852e-05 18.8774C-0.000473824 18.3974 0.0323125 17.9179 0.0981675 17.4426C0.14257 17.0968 0.205654 16.7538 0.287136 16.415C0.285483 16.3955 0.285483 16.3759 0.287136 16.3563L19.184 35.4389C19.6613 35.9179 19.9312 36.5684 19.9346 37.2479C19.938 37.9275 19.6746 38.5807 19.2021 39.0646Z" fill="url(#paint2_linear_146_15)"/>
<path d="M92.798 35.4315L105.197 22.9067L108.795 26.5398L96.3956 39.0645C95.9185 39.5463 95.2715 39.817 94.5968 39.817C93.9221 39.817 93.275 39.5463 92.798 39.0645C92.3209 38.5828 92.0529 37.9293 92.0529 37.248C92.0529 36.5667 92.3209 35.9133 92.798 35.4315Z" fill="url(#paint3_linear_146_15)"/>
<path d="M102.239 22.5801H59.2343C59.6802 25.0725 60.7649 27.4035 62.3803 29.341C63.9957 31.2785 66.0856 32.7548 68.4418 33.623C70.7979 34.4912 73.3382 34.721 75.8097 34.2895C78.2811 33.858 80.5975 32.7802 82.5283 31.1636C82.8028 30.9262 83.1213 30.7464 83.4653 30.6345C83.8093 30.5226 84.1719 30.4809 84.532 30.5119C84.8921 30.5429 85.2426 30.6458 85.5629 30.8148C85.8832 30.9838 86.1671 31.2155 86.3979 31.4963C86.6287 31.7771 86.802 32.1014 86.9075 32.4505C87.0131 32.7995 87.0488 33.1663 87.0127 33.5294C86.9766 33.8925 86.8693 34.2448 86.6971 34.5657C86.5249 34.8865 86.2912 35.1696 86.0096 35.3984C83.1149 37.8214 79.5969 39.3622 75.867 39.8408C72.1371 40.3193 68.3494 39.7158 64.9466 38.1008C61.5438 36.4858 58.6665 33.9261 56.6511 30.7208C54.6357 27.5155 53.5655 23.7971 53.5655 20.0003C53.5655 16.2034 54.6357 12.485 56.6511 9.27972C58.6665 6.07442 61.5438 3.51466 64.9466 1.89968C68.3494 0.284691 72.1371 -0.3188 75.867 0.15975C79.5969 0.6383 83.1149 2.17912 86.0096 4.60209C86.2912 4.83091 86.5249 5.11399 86.6971 5.43485C86.8693 5.75572 86.9766 6.10797 87.0127 6.47109C87.0488 6.83422 87.0131 7.20098 86.9075 7.55003C86.802 7.89908 86.6287 8.22344 86.3979 8.50425C86.1671 8.78506 85.8832 9.0167 85.5629 9.18569C85.2426 9.35468 84.8921 9.45766 84.532 9.48862C84.1719 9.51958 83.8093 9.47791 83.4653 9.36603C83.1213 9.25416 82.8028 9.07431 82.5283 8.83695C80.5961 7.22006 78.278 6.14277 75.8051 5.71247C73.3321 5.28216 70.7907 5.51386 68.434 6.38447C66.0774 7.25509 63.9879 8.73421 62.3737 10.6744C60.7595 12.6146 59.6771 14.9482 59.2343 17.4425H99.3319C99.4756 17.4421 99.618 17.4704 99.7508 17.5259C99.8837 17.5813 100.004 17.6627 100.106 17.7654L103.013 20.7012C103.166 20.8554 103.269 21.0518 103.311 21.2655C103.353 21.4793 103.331 21.7008 103.248 21.902C103.165 22.1032 103.025 22.2751 102.846 22.3958C102.666 22.5165 102.455 22.5806 102.239 22.5801Z" fill="url(#paint4_linear_146_15)"/>
<path d="M92.798 0.936073C93.0342 0.697509 93.3146 0.508269 93.6233 0.379158C93.9319 0.250047 94.2627 0.183594 94.5968 0.183594C94.9309 0.183594 95.2617 0.250047 95.5703 0.379158C95.879 0.508269 96.1594 0.697509 96.3956 0.936073L108.708 13.3691L109.071 13.7361C110.08 14.7995 110.86 16.0628 111.36 17.4462C111.785 18.6221 112.002 19.8642 112 21.1159C112.001 21.5959 111.968 22.0754 111.902 22.5508C111.858 22.8965 111.794 23.2395 111.713 23.5783C111.715 23.5978 111.715 23.6175 111.713 23.637L92.8161 4.55442C92.341 4.0757 92.0725 3.42677 92.0691 2.74903C92.0657 2.07128 92.3277 1.41963 92.798 0.936073Z" fill="url(#paint5_linear_146_15)"/>
<defs>
<linearGradient id="paint0_linear_146_15" x1="33.8399" y1="-1.9556" x2="33.8399" y2="40.2829" gradientUnits="userSpaceOnUse">
<stop stop-color="#14E3D9"/>
<stop offset="1" stop-color="#0D398C"/>
</linearGradient>
<linearGradient id="paint1_linear_146_15" x1="11.5743" y1="-1.9556" x2="11.5743" y2="40.2829" gradientUnits="userSpaceOnUse">
<stop stop-color="#14E3D9"/>
<stop offset="1" stop-color="#0D398C"/>
</linearGradient>
<linearGradient id="paint2_linear_146_15" x1="9.97175" y1="-1.9556" x2="9.97175" y2="40.2829" gradientUnits="userSpaceOnUse">
<stop stop-color="#14E3D9"/>
<stop offset="1" stop-color="#0D398C"/>
</linearGradient>
<linearGradient id="paint3_linear_146_15" x1="100.422" y1="39.8792" x2="100.422" y2="-0.491429" gradientUnits="userSpaceOnUse">
<stop stop-color="#14E3D9"/>
<stop offset="1" stop-color="#061A40"/>
<stop offset="1" stop-color="#0D398C"/>
</linearGradient>
<linearGradient id="paint4_linear_146_15" x1="78.4473" y1="39.8792" x2="78.4473" y2="-0.491488" gradientUnits="userSpaceOnUse">
<stop stop-color="#14E3D9"/>
<stop offset="1" stop-color="#0D398C"/>
</linearGradient>
<linearGradient id="paint5_linear_146_15" x1="102.025" y1="39.8792" x2="102.025" y2="-0.491451" gradientUnits="userSpaceOnUse">
<stop stop-color="#14E3D9"/>
<stop offset="1" stop-color="#0D398C"/>
</linearGradient>
</defs>
</svg>
